<?xml version="1.0" standalone="no"?>
<!DOCTYPE svg PUBLIC "-//W3C//DTD SVG 20010904//EN"
 "http://www.w3.org/TR/2001/REC-SVG-20010904/DTD/svg10.dtd">
<svg version="1.0" xmlns="http://www.w3.org/2000/svg"
 width="1920.000000pt" height="1080.000000pt" viewBox="0 0 1920.000000 1080.000000"
 preserveAspectRatio="xMidYMid meet">

<g transform="translate(0.000000,1080.000000) scale(0.100000,-0.100000)"
fill="#000000" stroke="none">
<path d="M14998 10793 c7 -3 16 -2 19 1 4 3 -2 6 -13 5 -11 0 -14 -3 -6 -6z"/>
<path d="M11066 10624 c-3 -9 -6 -74 -6 -145 l0 -129 -1275 0 -1275 0 -19 39
c-37 71 -128 131 -200 131 -83 0 -174 -57 -212 -133 -31 -60 -24 -168 14 -225
57 -86 158 -121 264 -91 53 15 128 81 139 123 l6 26 1279 0 1279 0 0 -129 c0
-106 3 -132 16 -146 9 -9 23 -14 30 -11 18 7 417 306 427 320 4 6 6 25 5 41
-3 26 -28 49 -212 188 -204 154 -246 177 -260 141z"/>
<path d="M16607 10405 c-36 -45 -21 -45 23 0 21 22 28 35 19 35 -7 0 -27 -16
-42 -35z"/>
<path d="M14156 10340 c-62 -20 -96 -76 -96 -160 0 -110 50 -160 158 -160 35
0 62 4 62 10 0 6 -25 10 -55 10 -76 0 -109 19 -130 75 -48 124 39 242 152 207
40 -12 53 -8 36 9 -15 15 -91 20 -127 9z"/>
<path d="M15393 10334 c-50 -25 -75 -74 -76 -147 -1 -108 48 -167 137 -167 94
0 146 57 146 162 0 61 -22 112 -61 141 -37 27 -106 32 -146 11z m112 -18 c42
-18 63 -50 71 -109 8 -56 -16 -129 -49 -152 -12 -8 -42 -15 -68 -15 -84 0
-125 55 -117 160 6 81 42 121 116 129 7 0 28 -5 47 -13z"/>
<path d="M15970 10333 c-51 -27 -75 -75 -75 -153 0 -106 48 -160 140 -160 63
0 99 21 124 73 38 78 17 193 -43 232 -39 26 -105 29 -146 8z m115 -17 c44 -19
68 -66 68 -133 0 -98 -38 -143 -122 -143 -31 0 -49 7 -73 29 -29 26 -33 35
-36 98 -5 84 13 128 61 148 41 18 60 18 102 1z"/>
<path d="M16346 10340 c-88 -27 -130 -139 -90 -240 22 -55 66 -80 140 -80 103
0 104 1 104 86 l0 74 -60 0 c-33 0 -60 -4 -60 -10 0 -5 23 -10 50 -10 l51 0
-3 -57 -3 -58 -68 -3 c-65 -3 -69 -2 -101 30 -39 39 -53 96 -36 156 20 74 101
117 178 94 22 -7 40 -8 45 -3 6 6 -7 14 -29 20 -45 13 -77 13 -118 1z"/>
<path d="M14373 10183 c-35 -86 -61 -159 -58 -161 9 -10 24 11 41 58 l18 51
70 -3 69 -3 20 -52 c11 -29 26 -53 33 -53 11 0 9 10 -5 48 -11 26 -39 98 -63
159 -24 62 -47 113 -53 113 -5 0 -38 -71 -72 -157z m102 44 c14 -37 25 -70 25
-72 0 -3 -25 -5 -55 -5 -30 0 -55 3 -55 7 0 13 52 144 56 141 2 -2 15 -34 29
-71z"/>
<path d="M14630 10181 c0 -101 4 -161 10 -161 6 0 10 30 10 70 l0 70 40 0 c38
0 40 -2 81 -70 23 -38 47 -70 55 -70 9 0 -2 26 -31 73 l-44 72 24 13 c47 24
60 91 26 133 -16 20 -30 24 -95 27 l-76 4 0 -161z m136 131 c21 -13 34 -52 28
-77 -9 -37 -41 -55 -96 -55 l-48 0 0 70 0 70 53 0 c28 0 57 -4 63 -8z"/>
<path d="M14900 10180 l0 -160 45 0 c25 0 45 -4 45 -10 0 -5 7 -10 15 -10 8 0
15 4 15 9 0 5 17 18 37 28 54 26 76 63 81 132 8 117 -43 171 -165 171 l-73 0
0 -160z m175 107 c40 -40 53 -102 33 -161 -18 -55 -55 -79 -128 -84 l-60 -4 0
141 0 141 61 0 c56 0 64 -3 94 -33z"/>
<path d="M15220 10180 c0 -100 4 -160 10 -160 6 0 10 60 10 160 0 100 -4 160
-10 160 -6 0 -10 -60 -10 -160z"/>
<path d="M15680 10180 l0 -160 85 0 c50 0 85 4 85 10 0 6 -32 10 -75 10 l-75
0 0 150 c0 93 -4 150 -10 150 -6 0 -10 -60 -10 -160z"/>
<path d="M16580 10180 c0 -136 2 -160 15 -160 13 0 15 24 15 160 0 136 -2 160
-15 160 -13 0 -15 -24 -15 -160z"/>
<path d="M16771 10318 c-5 -13 -34 -85 -64 -160 -38 -95 -51 -138 -42 -138 8
0 22 24 33 53 l20 52 69 3 70 3 18 -48 c19 -52 31 -70 40 -61 9 8 -115 318
-126 318 -5 0 -13 -10 -18 -22z m48 -88 c29 -77 29 -80 -27 -80 -27 0 -51 2
-54 5 -3 3 6 37 21 75 14 38 29 66 33 62 3 -4 16 -32 27 -62z"/>
<path d="M11075 9704 c-12 -12 -15 -43 -15 -150 l0 -134 -1275 0 -1275 0 -19
38 c-75 146 -263 177 -372 60 -44 -46 -59 -88 -59 -158 0 -161 145 -265 304
-218 47 14 122 84 132 122 l6 26 1279 0 1279 0 0 -129 c0 -104 3 -133 16 -145
8 -9 19 -16 23 -16 4 0 103 73 221 163 189 142 215 166 218 192 2 22 -4 37
-20 51 -42 38 -393 300 -410 307 -10 3 -24 -1 -33 -9z"/>
<path d="M16883 9618 c-32 -46 -19 -48 25 -5 31 31 33 37 17 37 -11 0 -30 -15
-42 -32z"/>
<path d="M13143 9541 c-69 -43 -53 -109 35 -148 74 -33 92 -50 92 -84 0 -43
-36 -62 -110 -57 -37 2 -59 -1 -57 -7 2 -5 33 -11 69 -13 58 -2 69 0 94 21 21
18 28 33 28 60 0 46 -13 60 -82 88 -71 27 -84 40 -84 75 0 52 62 79 126 54 15
-5 28 -5 31 0 8 13 -9 20 -62 26 -37 4 -55 1 -80 -15z"/>
<path d="M13693 9544 c-50 -25 -75 -74 -76 -147 -1 -108 48 -167 137 -167 94
0 146 57 146 162 0 61 -22 112 -61 141 -37 27 -106 32 -146 11z m112 -18 c42
-18 63 -50 71 -109 8 -56 -16 -129 -49 -152 -12 -8 -42 -15 -68 -15 -84 0
-125 55 -117 160 6 81 42 121 116 129 7 0 28 -5 47 -13z"/>
<path d="M14020 9553 c-33 -12 -60 -47 -60 -78 0 -39 30 -69 90 -90 80 -28
103 -72 59 -116 -18 -18 -30 -21 -90 -17 -66 3 -87 -3 -53 -16 9 -3 42 -6 73
-6 77 0 111 25 111 79 0 46 -27 74 -94 97 -49 17 -80 50 -74 80 2 9 15 26 31
37 24 19 33 20 77 11 53 -11 68 0 24 16 -27 11 -70 12 -94 3z"/>
<path d="M15013 9544 c-50 -25 -75 -74 -76 -147 -1 -108 48 -167 137 -167 94
0 146 57 146 162 0 61 -22 112 -61 141 -37 27 -106 32 -146 11z m112 -18 c42
-18 63 -50 71 -109 8 -56 -16 -129 -49 -152 -12 -8 -42 -15 -68 -15 -84 0
-125 55 -117 160 6 81 42 121 116 129 7 0 28 -5 47 -13z"/>
<path d="M15323 9541 c-69 -43 -53 -109 35 -148 74 -33 92 -50 92 -84 0 -43
-36 -62 -110 -57 -37 2 -59 -1 -57 -7 2 -5 33 -11 69 -13 58 -2 69 0 94 21 21
18 28 33 28 60 0 46 -13 60 -82 88 -71 27 -84 40 -84 75 0 52 62 79 126 54 15
-5 28 -5 31 0 8 13 -9 20 -62 26 -37 4 -55 1 -80 -15z"/>
<path d="M16123 9544 c-50 -25 -75 -74 -76 -147 -1 -108 48 -167 137 -167 94
0 146 57 146 162 0 61 -22 112 -61 141 -37 27 -106 32 -146 11z m112 -18 c42
-18 63 -50 71 -109 8 -56 -16 -129 -49 -152 -12 -8 -42 -15 -68 -15 -84 0
-125 55 -117 160 6 81 42 121 116 129 7 0 28 -5 47 -13z"/>
<path d="M17566 9550 c-62 -20 -96 -76 -96 -160 0 -110 50 -160 158 -160 35 0
62 4 62 10 0 6 -25 10 -55 10 -76 0 -109 19 -130 75 -48 124 39 242 152 207
40 -12 53 -8 36 9 -15 15 -91 20 -127 9z"/>
<path d="M17830 9542 c-54 -27 -80 -74 -80 -144 0 -112 37 -159 130 -166 69
-5 99 9 130 61 27 43 27 149 2 196 -35 65 -114 88 -182 53z m144 -42 c23 -23
30 -40 34 -83 9 -108 -33 -167 -118 -167 -79 0 -120 51 -120 150 0 117 125
178 204 100z"/>
<path d="M18141 9543 c-40 -21 -56 -58 -42 -97 8 -20 30 -35 86 -61 74 -33 81
-42 75 -85 -1 -8 -9 -23 -18 -33 -14 -16 -28 -18 -85 -15 -43 2 -66 0 -64 -7
5 -14 115 -18 148 -5 35 15 56 62 43 98 -6 20 -27 36 -74 58 -36 17 -71 37
-77 43 -17 16 -16 66 0 80 22 18 74 24 106 13 17 -6 33 -7 36 -2 16 26 -89 37
-134 13z"/>
<path d="M12680 9390 l0 -160 63 0 c88 1 142 27 167 82 25 56 25 111 0 164
-27 55 -67 74 -159 74 l-71 0 0 -160z m191 102 c25 -28 29 -40 29 -93 0 -33
-7 -73 -15 -88 -18 -36 -71 -61 -129 -61 l-46 0 0 141 0 141 66 -4 c60 -4 70
-7 95 -36z"/>
<path d="M13000 9390 c0 -136 2 -160 15 -160 13 0 15 24 15 160 0 136 -2 160
-15 160 -13 0 -15 -24 -15 -160z"/>
<path d="M13370 9390 c0 -100 4 -160 10 -160 6 0 10 28 10 64 l0 63 51 6 c88
11 128 53 115 121 -9 47 -45 66 -126 66 l-60 0 0 -160z m149 114 c49 -63 -1
-124 -101 -124 l-28 0 0 75 0 75 54 0 c47 0 57 -4 75 -26z"/>
<path d="M14220 9390 c0 -136 2 -160 15 -160 13 0 15 24 15 160 0 136 -2 160
-15 160 -13 0 -15 -24 -15 -160z"/>
<path d="M14295 9540 c3 -5 28 -10 56 -10 l49 0 0 -150 c0 -93 4 -150 10 -150
6 0 10 57 10 150 l0 150 55 0 c30 0 55 5 55 10 0 6 -47 10 -121 10 -77 0 -118
-4 -114 -10z"/>
<path d="M14580 9390 c0 -100 4 -160 10 -160 6 0 10 60 10 160 0 100 -4 160
-10 160 -6 0 -10 -60 -10 -160z"/>
<path d="M14652 9539 c65 -183 115 -309 123 -309 12 0 130 309 121 317 -10 11
-17 -2 -66 -137 -27 -72 -50 -134 -53 -136 -2 -2 -27 57 -54 133 -27 75 -56
139 -63 141 -8 3 -11 -1 -8 -9z"/>
<path d="M15660 9391 l0 -161 65 0 c88 0 130 18 144 63 12 34 2 87 -16 87 -5
0 -14 4 -21 9 -11 6 -8 14 13 35 22 22 26 33 21 59 -11 52 -28 62 -121 66
l-85 3 0 -161z m161 129 c13 -7 19 -21 19 -45 0 -46 -29 -65 -97 -65 l-53 0 0
60 0 60 56 0 c30 0 64 -5 75 -10z m-6 -142 c28 -13 40 -45 31 -81 -7 -31 -45
-47 -106 -47 l-50 0 0 70 0 70 50 0 c27 0 61 -5 75 -12z"/>
<path d="M15950 9390 c0 -100 4 -160 10 -160 6 0 10 60 10 160 0 100 -4 160
-10 160 -6 0 -10 -60 -10 -160z"/>
<path d="M16410 9390 c0 -100 4 -160 10 -160 6 0 10 56 10 148 l1 147 58 -145
c32 -79 63 -146 67 -147 5 -2 36 63 69 144 l60 148 3 -147 c4 -205 22 -194 22
12 0 151 -1 160 -19 160 -15 0 -30 -28 -73 -135 -29 -74 -56 -135 -59 -135 -3
0 -30 61 -60 135 -40 101 -58 135 -71 135 -16 0 -18 -14 -18 -160z"/>
<path d="M16800 9390 l0 -160 85 0 c50 0 85 4 85 10 0 6 -32 10 -75 10 l-75 0
0 70 0 70 75 0 c43 0 75 4 75 10 0 6 -32 10 -75 10 l-75 0 0 60 0 60 75 0 c43
0 75 4 75 10 0 6 -35 10 -85 10 l-85 0 0 -160z"/>
<path d="M17050 9390 l0 -160 60 0 c70 0 115 16 150 54 20 22 25 40 28 95 7
122 -40 171 -165 171 l-73 0 0 -160z m159 125 c56 -29 78 -126 43 -195 -21
-44 -72 -70 -134 -70 l-48 0 0 140 0 140 55 0 c31 0 69 -7 84 -15z"/>
<path d="M17370 9390 c0 -100 4 -160 10 -160 6 0 10 60 10 160 0 100 -4 160
-10 160 -6 0 -10 -60 -10 -160z"/>
<path d="M11075 8744 c-12 -12 -15 -42 -15 -145 l0 -129 -1279 0 -1279 0 -12
29 c-16 41 -68 91 -115 112 -109 50 -253 -7 -301 -118 -21 -48 -18 -146 5
-191 47 -90 107 -126 206 -127 103 0 171 44 212 138 l12 27 1276 0 1275 0 0
-134 c0 -109 3 -138 16 -150 21 -22 30 -16 264 161 171 130 195 152 198 178 1
17 -1 35 -5 41 -12 16 -405 309 -425 317 -10 3 -24 0 -33 -9z"/>
<path d="M14686 8610 c-62 -20 -96 -76 -96 -160 0 -110 50 -160 158 -160 35 0
62 4 62 10 0 6 -25 10 -55 10 -76 0 -109 19 -130 75 -48 124 39 242 152 207
40 -12 53 -8 36 9 -15 15 -91 20 -127 9z"/>
<path d="M13530 8450 c0 -100 4 -160 10 -160 6 0 10 56 10 148 l1 147 58 -145
c32 -79 63 -146 67 -147 5 -2 36 63 69 144 l60 148 3 -147 c4 -205 22 -194 22
12 0 151 -1 160 -19 160 -15 0 -30 -28 -73 -135 -29 -74 -56 -135 -59 -135 -3
0 -30 61 -60 135 -40 101 -58 135 -71 135 -16 0 -18 -14 -18 -160z"/>
<path d="M13920 8450 l0 -160 85 0 c50 0 85 4 85 10 0 6 -32 10 -75 10 l-75 0
0 70 0 70 75 0 c43 0 75 4 75 10 0 6 -32 10 -75 10 l-75 0 0 60 0 60 75 0 c43
0 75 4 75 10 0 6 -35 10 -85 10 l-85 0 0 -160z"/>
<path d="M14170 8451 l0 -161 63 0 c76 0 140 27 160 67 37 73 27 167 -22 217
-29 29 -37 31 -116 35 l-85 3 0 -161z m160 124 c44 -23 63 -67 58 -136 -6 -88
-56 -129 -153 -129 l-45 0 0 140 0 140 55 0 c31 0 69 -7 85 -15z"/>
<path d="M14490 8450 c0 -100 4 -160 10 -160 6 0 10 60 10 160 0 100 -4 160
-10 160 -6 0 -10 -60 -10 -160z"/>
<path d="M14890 8450 c0 -100 4 -160 10 -160 6 0 10 60 10 160 0 100 -4 160
-10 160 -6 0 -10 -60 -10 -160z"/>
<path d="M15000 8450 c0 -203 18 -218 22 -18 l3 141 94 -141 c52 -78 100 -142
107 -142 11 0 14 32 14 160 0 140 -2 160 -16 160 -14 0 -15 -17 -12 -140 1
-77 3 -140 2 -140 -1 0 -43 63 -94 140 -51 77 -99 140 -106 140 -11 0 -14 -32
-14 -160z"/>
<path d="M15406 8602 c-4 -6 -43 -103 -107 -264 -14 -35 -15 -48 -6 -48 7 0
21 24 32 53 l21 52 70 3 70 3 19 -56 c11 -31 25 -55 33 -55 7 0 12 4 10 8 -1
5 -30 77 -62 160 -55 141 -67 164 -80 144z m42 -105 c12 -33 22 -63 22 -68 0
-5 -25 -9 -56 -9 -49 0 -55 2 -50 18 35 95 52 130 57 124 3 -4 15 -33 27 -65z"/>
<path d="M15720 8450 c0 -100 4 -160 10 -160 6 0 10 60 10 160 0 100 -4 160
-10 160 -6 0 -10 -60 -10 -160z"/>
<path d="M15830 8450 c0 -203 18 -218 22 -18 l3 141 94 -141 c52 -78 100 -142
107 -142 11 0 14 32 14 160 0 140 -2 160 -16 160 -14 0 -15 -17 -12 -140 1
-77 3 -140 2 -140 -1 0 -43 63 -94 140 -51 77 -99 140 -106 140 -11 0 -14 -32
-14 -160z"/>
<path d="M16115 8600 c3 -5 28 -10 56 -10 l49 0 0 -150 c0 -93 4 -150 10 -150
6 0 10 57 10 150 l0 150 55 0 c30 0 55 5 55 10 0 6 -47 10 -121 10 -77 0 -118
-4 -114 -10z"/>
<path d="M16400 8450 l0 -160 85 0 c50 0 85 4 85 10 0 6 -32 10 -75 10 l-75 0
0 70 0 70 70 0 c40 0 70 4 70 10 0 6 -30 10 -70 10 l-70 0 0 60 0 60 75 0 c43
0 75 4 75 10 0 6 -35 10 -85 10 l-85 0 0 -160z"/>
<path d="M16650 8451 c0 -101 4 -161 10 -161 6 0 10 30 10 70 l0 70 40 0 c38
0 40 -2 81 -70 23 -38 47 -70 55 -70 9 0 -2 26 -31 73 l-44 72 24 13 c47 24
60 91 26 133 -16 20 -30 24 -95 27 l-76 4 0 -161z m136 131 c21 -13 34 -52 28
-77 -9 -37 -41 -55 -96 -55 l-48 0 0 70 0 70 53 0 c28 0 57 -4 63 -8z"/>
<path d="M16910 8450 c0 -203 18 -218 22 -17 l3 142 95 -142 c52 -78 101 -143
108 -143 9 0 12 39 12 160 0 203 -18 218 -22 18 l-3 -141 -94 141 c-52 78
-100 142 -107 142 -11 0 -14 -32 -14 -160z"/>
<path d="M17261 8454 c-34 -86 -59 -159 -56 -162 9 -9 21 10 40 61 l18 47 67
0 68 0 22 -55 c21 -51 41 -72 40 -42 -1 22 -117 301 -127 304 -5 2 -37 -67
-72 -153z m122 -26 c-2 -5 -26 -8 -54 -8 -55 0 -58 6 -33 66 9 22 21 50 26 64
9 23 12 20 37 -45 16 -38 26 -73 24 -77z"/>
<path d="M11066 7744 c-3 -9 -6 -74 -6 -145 l0 -129 -1275 0 -1274 0 -17 33
c-76 149 -273 177 -381 53 -41 -46 -56 -95 -51 -171 5 -75 37 -131 99 -172 53
-35 149 -44 214 -19 48 19 111 81 121 121 l6 25 1279 0 1279 0 0 -133 c0 -132
6 -157 36 -157 12 0 423 305 436 324 4 6 8 23 8 38 0 25 -26 47 -213 188 -118
88 -223 160 -234 160 -12 0 -24 -7 -27 -16z"/>
<path d="M15477 7715 c-15 -19 -25 -35 -21 -35 12 0 74 51 74 61 0 20 -26 7
-53 -26z"/>
<path d="M14780 7642 c-54 -27 -80 -74 -80 -144 0 -112 37 -159 130 -166 69
-5 99 9 130 61 27 43 27 149 2 196 -35 65 -114 88 -182 53z m144 -42 c23 -23
30 -40 34 -83 9 -108 -33 -167 -118 -167 -79 0 -120 51 -120 150 0 117 125
178 204 100z"/>
<path d="M15411 7642 c-50 -25 -74 -63 -79 -127 -10 -117 44 -185 145 -185 70
0 116 38 133 110 36 150 -77 265 -199 202z m114 -16 c50 -21 68 -64 63 -149
-3 -63 -7 -72 -36 -98 -24 -22 -42 -29 -73 -29 -83 0 -125 48 -123 145 0 65
21 106 64 127 42 22 60 22 105 4z"/>
<path d="M16126 7650 c-62 -20 -96 -76 -96 -160 0 -110 50 -160 158 -160 35 0
62 4 62 10 0 6 -25 10 -55 10 -76 0 -109 19 -130 75 -48 124 39 242 152 207
40 -12 53 -8 36 9 -15 15 -91 20 -127 9z"/>
<path d="M14450 7491 c0 -101 4 -161 10 -161 6 0 10 30 10 70 l0 70 40 0 c38
0 40 -2 81 -70 23 -38 47 -70 55 -70 9 0 -2 26 -31 73 l-44 72 24 13 c47 24
60 91 26 133 -16 20 -30 24 -95 27 l-76 4 0 -161z m136 131 c21 -13 34 -52 28
-77 -9 -37 -41 -55 -96 -55 l-48 0 0 70 0 70 53 0 c28 0 57 -4 63 -8z"/>
<path d="M15060 7489 l0 -161 79 3 c67 4 83 8 105 28 38 36 36 93 -4 122 -29
22 -29 22 -8 33 44 22 39 103 -8 125 -14 6 -56 11 -94 11 l-70 0 0 -161z m162
124 c10 -9 18 -29 18 -44 0 -40 -33 -59 -102 -59 l-58 0 0 60 0 60 62 0 c43 0
67 -5 80 -17z m2 -144 c17 -13 26 -30 26 -49 0 -45 -40 -70 -111 -70 l-59 0 0
70 0 70 59 0 c44 0 65 -5 85 -21z"/>
<path d="M15650 7640 c0 -5 23 -10 50 -10 l50 0 0 -150 c0 -93 4 -150 10 -150
6 0 10 57 10 150 l0 150 55 0 c30 0 55 5 55 10 0 6 -45 10 -115 10 -70 0 -115
-4 -115 -10z"/>
<path d="M15930 7490 c0 -100 4 -160 10 -160 6 0 10 60 10 160 0 100 -4 160
-10 160 -6 0 -10 -60 -10 -160z"/>
<path d="M16406 7642 c-4 -6 -43 -103 -107 -264 -14 -35 -15 -48 -6 -48 7 0
21 24 32 53 l21 52 70 3 70 3 19 -56 c11 -31 25 -55 33 -55 7 0 12 4 10 8 -1
5 -30 77 -62 160 -55 141 -67 164 -80 144z m42 -105 c12 -33 22 -63 22 -68 0
-5 -25 -9 -56 -9 -49 0 -55 2 -50 18 35 95 52 130 57 124 3 -4 15 -33 27 -65z"/>
<path d="M11072 6768 c-8 -8 -12 -55 -12 -145 l0 -133 -1275 0 -1274 0 -17 33
c-74 146 -266 177 -376 60 -78 -82 -78 -234 0 -316 90 -95 253 -92 339 7 18
20 36 48 39 61 l6 25 1279 0 1279 0 0 -133 c0 -132 6 -157 37 -157 6 0 109 72
228 161 206 154 215 162 215 195 0 32 -9 41 -213 194 -118 88 -220 160 -228
160 -8 0 -20 -5 -27 -12z"/>
<path d="M15126 6718 c-36 -46 -22 -49 22 -5 26 26 32 37 20 37 -9 0 -28 -14
-42 -32z"/>
<path d="M13631 6638 c-56 -30 -81 -75 -81 -146 0 -111 49 -162 155 -162 104
0 105 1 105 86 l0 74 -60 0 c-33 0 -60 -4 -60 -10 0 -5 23 -10 50 -10 l51 0
-3 -57 -3 -58 -60 -3 c-77 -4 -118 16 -139 69 -52 128 47 249 172 211 38 -12
52 -8 35 9 -5 5 -34 13 -64 15 -44 5 -62 1 -98 -18z"/>
<path d="M17391 6642 c-50 -25 -74 -63 -79 -127 -10 -117 44 -185 145 -185 70
0 116 38 133 110 36 150 -77 265 -199 202z m114 -16 c50 -21 68 -64 63 -149
-3 -63 -7 -72 -36 -98 -24 -22 -42 -29 -73 -29 -83 0 -125 48 -123 145 0 65
21 106 64 127 42 22 60 22 105 4z"/>
<path d="M17704 6646 c-34 -15 -44 -33 -44 -76 0 -37 19 -55 96 -90 76 -34 92
-65 53 -106 -22 -24 -30 -26 -92 -22 -43 2 -66 0 -64 -7 2 -5 36 -11 75 -13
65 -3 74 -1 97 22 29 29 34 86 9 107 -9 8 -43 28 -77 44 -68 34 -83 51 -74 87
10 37 56 54 113 41 32 -8 44 -7 41 1 -8 25 -87 32 -133 12z"/>
<path d="M13120 6490 c0 -100 4 -160 10 -160 6 0 10 60 10 160 0 100 -4 160
-10 160 -6 0 -10 -60 -10 -160z"/>
<path d="M13240 6490 c0 -100 4 -160 10 -160 6 0 10 54 10 142 l0 143 95 -143
c52 -78 100 -142 105 -142 6 0 10 61 10 160 0 100 -4 160 -10 160 -6 0 -10
-54 -10 -142 l0 -143 -95 143 c-52 78 -100 142 -105 142 -6 0 -10 -61 -10
-160z"/>
<path d="M13890 6490 l0 -160 90 0 c53 0 90 4 90 10 0 6 -33 10 -80 10 l-80 0
0 70 0 70 75 0 c43 0 75 4 75 10 0 6 -32 10 -75 10 l-75 0 0 60 0 60 80 0 c47
0 80 4 80 10 0 6 -37 10 -90 10 l-90 0 0 -160z"/>
<path d="M14140 6490 c0 -203 18 -218 22 -18 l3 141 94 -141 c52 -78 100 -142
107 -142 11 0 14 32 14 160 0 140 -2 160 -16 160 -14 0 -15 -17 -12 -140 1
-77 3 -140 2 -140 -1 0 -43 63 -94 140 -51 77 -99 140 -106 140 -11 0 -14 -32
-14 -160z"/>
<path d="M14470 6490 c0 -100 4 -160 10 -160 6 0 10 60 10 160 0 100 -4 160
-10 160 -6 0 -10 -60 -10 -160z"/>
<path d="M14580 6490 l0 -160 90 0 c53 0 90 4 90 10 0 6 -33 10 -80 10 l-80 0
0 70 0 70 75 0 c43 0 75 4 75 10 0 6 -32 10 -75 10 l-75 0 0 60 0 60 80 0 c47
0 80 4 80 10 0 6 -37 10 -90 10 l-90 0 0 -160z"/>
<path d="M14830 6490 c0 -100 4 -160 10 -160 6 0 10 30 10 70 l0 70 43 0 c43
0 43 0 83 -70 21 -38 45 -70 52 -70 17 0 16 3 -28 75 l-40 65 31 28 c42 37 44
95 4 129 -22 19 -38 23 -96 23 l-69 0 0 -160z m148 124 c15 -10 22 -25 22 -49
0 -47 -37 -75 -101 -75 l-49 0 0 70 0 70 53 0 c31 0 61 -6 75 -16z"/>
<path d="M15100 6490 c0 -100 4 -160 10 -160 6 0 10 60 10 160 0 100 -4 160
-10 160 -6 0 -10 -60 -10 -160z"/>
<path d="M15296 6642 c-4 -6 -43 -103 -107 -264 -14 -35 -15 -48 -6 -48 7 0
21 24 32 53 l21 52 70 3 70 3 19 -56 c11 -31 25 -55 33 -55 7 0 12 4 10 8 -1
5 -30 77 -62 160 -55 141 -67 164 -80 144z m42 -105 c12 -33 22 -63 22 -68 0
-5 -25 -9 -56 -9 -49 0 -55 2 -50 18 35 95 52 130 57 124 3 -4 15 -33 27 -65z"/>
<path d="M15610 6489 l0 -162 76 5 c113 8 164 57 164 161 0 109 -52 157 -167
157 l-73 0 0 -161z m175 108 c40 -40 53 -102 33 -161 -18 -55 -55 -79 -128
-84 l-60 -4 0 141 0 141 61 0 c56 0 64 -3 94 -33z"/>
<path d="M15930 6490 l0 -160 85 0 c50 0 85 4 85 10 0 6 -32 10 -75 10 l-75 0
0 70 0 70 70 0 c40 0 70 4 70 10 0 6 -30 10 -70 10 l-70 0 0 60 0 60 75 0 c43
0 75 4 75 10 0 6 -35 10 -85 10 l-85 0 0 -160z"/>
<path d="M16250 6640 c0 -5 25 -10 55 -10 l55 0 0 -150 c0 -93 4 -150 10 -150
6 0 10 57 10 150 l0 150 50 0 c28 0 50 5 50 10 0 6 -45 10 -115 10 -70 0 -115
-4 -115 -10z"/>
<path d="M16530 6490 l0 -160 90 0 c53 0 90 4 90 10 0 6 -33 10 -80 10 l-80 0
0 70 0 70 75 0 c43 0 75 4 75 10 0 6 -32 10 -75 10 l-75 0 0 60 0 60 80 0 c47
0 80 4 80 10 0 6 -37 10 -90 10 l-90 0 0 -160z"/>
<path d="M16780 6479 c0 -98 -4 -178 -10 -190 -8 -13 -21 -19 -46 -19 -21 0
-33 -4 -29 -10 11 -17 64 -11 85 10 19 19 20 33 20 200 0 113 -4 180 -10 180
-6 0 -10 -64 -10 -171z"/>
<path d="M16890 6490 c0 -136 2 -160 15 -160 13 0 15 24 15 160 0 136 -2 160
-15 160 -13 0 -15 -24 -15 -160z"/>
<path d="M17010 6489 l0 -162 76 5 c113 8 164 57 164 161 0 109 -52 157 -167
157 l-73 0 0 -161z m175 108 c40 -40 53 -102 33 -161 -18 -55 -55 -79 -128
-84 l-60 -4 0 141 0 141 61 0 c56 0 64 -3 94 -33z"/>
<path d="M4532 6373 c-116 -297 -110 -275 -76 -271 25 3 32 12 59 81 l30 78
100 -3 99 -3 29 -77 c27 -72 32 -78 58 -78 16 0 29 2 29 4 0 3 -34 92 -76 198
-42 106 -85 217 -96 246 -16 42 -24 52 -43 52 -21 0 -32 -21 -113 -227z m188
-55 c0 -5 -34 -8 -76 -8 -55 0 -75 3 -72 13 2 6 19 55 38 108 l34 97 38 -102
c21 -55 38 -104 38 -108z"/>
<path d="M4984 6586 c-45 -20 -74 -62 -74 -108 0 -76 37 -114 149 -157 73 -27
91 -46 91 -92 0 -47 -27 -75 -79 -84 -34 -5 -114 5 -153 20 -15 6 -18 2 -18
-23 0 -28 4 -32 38 -39 58 -12 165 -7 198 10 49 25 67 53 72 110 4 46 1 57
-22 84 -15 18 -54 42 -93 59 -104 43 -123 59 -123 102 0 20 4 42 8 48 22 33
93 43 165 23 43 -12 42 -12 51 17 6 19 1 23 -38 33 -59 15 -134 13 -172 -3z"/>
<path d="M3030 6345 l0 -245 140 0 140 0 0 25 0 25 -110 0 -110 0 0 220 0 220
-30 0 -30 0 0 -245z"/>
<path d="M3390 6345 l0 -245 30 0 30 0 0 245 0 245 -30 0 -30 0 0 -245z"/>
<path d="M3590 6345 l0 -245 26 0 25 0 -3 204 c-2 112 -1 203 2 201 3 -2 64
-94 135 -204 125 -193 131 -201 163 -201 l32 0 0 245 0 245 -25 0 -25 0 -2
-201 -3 -201 -130 201 c-125 193 -131 201 -162 201 l-33 0 0 -245z"/>
<path d="M4110 6345 l0 -245 135 0 135 0 0 25 0 25 -105 0 -105 0 0 90 0 90
100 0 100 0 0 25 0 25 -100 0 -100 0 0 80 0 80 105 0 105 0 0 25 0 25 -135 0
-135 0 0 -245z"/>
<path d="M3820 5375 l0 -245 93 0 c202 0 285 65 295 231 5 90 -8 136 -51 186
-51 58 -95 73 -224 73 l-113 0 0 -245z m239 180 c64 -33 91 -86 91 -176 0
-132 -71 -199 -211 -199 l-59 0 0 201 0 202 77 -7 c42 -4 88 -13 102 -21z"/>
<path d="M4320 5375 l0 -245 140 0 140 0 0 25 0 25 -110 0 -110 0 0 90 0 89
103 3 c97 3 102 4 105 26 3 22 2 22 -102 22 l-106 0 0 80 0 80 110 0 110 0 0
25 0 25 -140 0 -140 0 0 -245z"/>
<path d="M11072 5568 c-8 -8 -12 -55 -12 -145 l0 -133 -1279 0 -1279 0 -6 25
c-9 36 -63 93 -110 117 -55 28 -147 29 -201 1 -83 -43 -125 -114 -125 -208 0
-134 92 -227 225 -227 93 0 167 45 209 130 l17 32 1274 0 1275 0 0 -133 c0
-133 6 -157 38 -157 7 0 110 73 228 161 201 152 214 164 214 194 0 30 -13 42
-213 194 -117 88 -220 161 -228 161 -8 0 -20 -5 -27 -12z"/>
<path d="M15407 5475 c-15 -19 -24 -35 -18 -35 13 0 71 50 71 61 0 20 -27 7
-53 -26z"/>
<path d="M16427 5475 c-36 -45 -21 -45 23 0 21 22 28 35 19 35 -7 0 -27 -16
-42 -35z"/>
<path d="M13923 5401 c-98 -46 -124 -187 -49 -269 28 -30 40 -36 89 -40 31 -2
72 -1 92 2 l35 7 0 74 0 75 -55 0 c-30 0 -55 -4 -55 -10 0 -5 20 -10 45 -10
l46 0 -3 -57 -3 -58 -67 -3 c-62 -3 -69 -1 -99 26 -30 27 -34 36 -37 98 -3 60
-1 74 20 104 32 48 85 67 149 53 28 -5 52 -6 55 -2 7 13 -13 20 -69 25 -38 4
-63 0 -94 -15z"/>
<path d="M15973 5410 c-111 -34 -134 -223 -36 -300 22 -17 38 -20 92 -18 35 2
66 8 68 13 2 6 -20 9 -57 7 -72 -4 -104 12 -126 63 -51 124 33 249 147 218 36
-9 62 -2 40 11 -19 12 -97 15 -128 6z"/>
<path d="M17043 5410 c-111 -34 -134 -223 -36 -300 22 -17 38 -20 92 -18 35 2
66 8 68 13 2 6 -20 9 -57 7 -72 -4 -104 12 -126 63 -51 124 33 249 147 218 36
-9 62 -2 40 11 -19 12 -97 15 -128 6z"/>
<path d="M13410 5250 c0 -100 4 -160 10 -160 6 0 10 60 10 160 0 100 -4 160
-10 160 -6 0 -10 -60 -10 -160z"/>
<path d="M13520 5250 c0 -203 18 -218 22 -18 l3 141 94 -141 c52 -78 100 -142
107 -142 11 0 14 32 14 160 0 140 -2 160 -16 160 -14 0 -15 -17 -12 -140 1
-77 3 -140 2 -140 -1 0 -43 63 -94 140 -51 77 -99 140 -106 140 -11 0 -14 -32
-14 -160z"/>
<path d="M14180 5250 l0 -160 85 0 c50 0 85 4 85 10 0 6 -32 10 -75 10 l-75 0
0 70 0 70 70 0 c40 0 70 4 70 10 0 6 -30 10 -70 10 l-70 0 0 60 0 60 75 0 c43
0 75 4 75 10 0 6 -35 10 -85 10 l-85 0 0 -160z"/>
<path d="M14430 5250 c0 -100 4 -160 10 -160 6 0 10 54 10 142 l0 143 95 -143
c52 -78 100 -142 105 -142 6 0 10 61 10 160 0 100 -4 160 -10 160 -6 0 -10
-54 -10 -142 l0 -143 -95 143 c-52 78 -100 142 -105 142 -6 0 -10 -61 -10
-160z"/>
<path d="M14750 5250 c0 -136 2 -160 15 -160 13 0 15 24 15 160 0 136 -2 160
-15 160 -13 0 -15 -24 -15 -160z"/>
<path d="M14870 5250 l0 -160 85 0 c50 0 85 4 85 10 0 6 -32 10 -75 10 l-75 0
0 70 0 70 70 0 c40 0 70 4 70 10 0 6 -30 10 -70 10 l-70 0 0 60 0 60 75 0 c43
0 75 4 75 10 0 6 -35 10 -85 10 l-85 0 0 -160z"/>
<path d="M15120 5251 c0 -101 4 -161 10 -161 6 0 10 30 10 70 l0 70 40 0 c38
0 40 -2 81 -70 23 -38 47 -70 55 -70 9 0 -2 26 -31 73 l-44 72 24 13 c47 24
60 91 26 133 -16 20 -30 24 -95 27 l-76 4 0 -161z m136 131 c21 -13 34 -52 28
-77 -9 -37 -41 -55 -96 -55 l-48 0 0 70 0 70 53 0 c28 0 57 -4 63 -8z"/>
<path d="M15390 5250 c0 -100 4 -160 10 -160 6 0 10 60 10 160 0 100 -4 160
-10 160 -6 0 -10 -60 -10 -160z"/>
<path d="M15521 5254 c-34 -86 -59 -159 -56 -162 9 -9 21 10 40 61 l18 47 67
0 68 0 22 -55 c21 -51 41 -72 40 -42 -1 22 -117 301 -127 304 -5 2 -37 -67
-72 -153z m122 -26 c-2 -5 -26 -8 -54 -8 -55 0 -58 6 -33 66 9 22 21 50 26 64
9 23 12 20 37 -45 16 -38 26 -73 24 -77z"/>
<path d="M16170 5250 l0 -160 90 0 c53 0 90 4 90 10 0 6 -33 10 -80 10 l-80 0
0 150 c0 93 -4 150 -10 150 -6 0 -10 -60 -10 -160z"/>
<path d="M16400 5250 c0 -136 2 -160 15 -160 13 0 15 24 15 160 0 136 -2 160
-15 160 -13 0 -15 -24 -15 -160z"/>
<path d="M16520 5250 c0 -100 4 -160 10 -160 6 0 10 54 10 142 l0 143 95 -143
c52 -78 100 -142 105 -142 6 0 10 61 10 160 0 200 -18 219 -22 23 l-3 -136
-90 136 c-49 75 -96 137 -102 137 -10 0 -13 -39 -13 -160z"/>
<path d="M16850 5250 c0 -100 4 -160 10 -160 6 0 10 60 10 160 0 100 -4 160
-10 160 -6 0 -10 -60 -10 -160z"/>
<path d="M17261 5254 c-34 -86 -59 -159 -56 -162 9 -9 21 10 40 61 l18 47 67
0 68 0 22 -55 c21 -51 41 -72 40 -42 -1 22 -117 301 -127 304 -5 2 -37 -67
-72 -153z m122 -26 c-2 -5 -26 -8 -54 -8 -55 0 -58 6 -33 66 9 22 21 50 26 64
9 23 12 20 37 -45 16 -38 26 -73 24 -77z"/>
<path d="M5949 4760 c-34 -55 -36 -64 -16 -68 14 -3 107 90 107 108 0 5 -14
10 -30 10 -25 0 -35 -8 -61 -50z"/>
<path d="M3274 4646 c-45 -20 -74 -62 -74 -108 0 -76 37 -114 149 -157 73 -27
91 -46 91 -92 0 -47 -27 -75 -79 -84 -34 -5 -114 5 -153 20 -15 6 -18 2 -18
-23 0 -28 4 -32 38 -39 58 -12 165 -7 198 10 49 25 67 53 72 110 4 46 1 57
-22 84 -15 18 -54 42 -93 59 -104 43 -123 59 -123 102 0 20 4 42 8 48 22 33
93 43 165 23 43 -12 42 -12 51 17 6 19 1 23 -38 33 -59 15 -134 13 -172 -3z"/>
<path d="M4312 4648 c-50 -17 -118 -83 -137 -132 -13 -33 -16 -67 -14 -129 4
-72 8 -90 34 -132 44 -72 105 -100 210 -99 44 1 99 6 123 13 l42 12 0 119 0
120 -85 0 c-84 0 -85 0 -85 -25 0 -24 3 -25 55 -25 l55 0 0 -79 0 -78 -57 -7
c-96 -10 -160 14 -207 78 -32 42 -35 170 -7 228 41 84 144 118 252 85 46 -14
47 -14 58 9 9 20 7 25 -11 35 -30 16 -186 21 -226 7z"/>
<path d="M4721 4423 c-51 -131 -96 -244 -98 -250 -3 -9 5 -13 24 -13 28 0 32
5 59 78 l29 77 100 0 100 0 30 -77 c27 -70 33 -78 58 -78 15 0 27 3 27 8 0 4
-42 115 -94 247 -125 322 -112 321 -235 8z m157 55 l39 -108 -78 0 c-44 0 -79
2 -79 4 0 2 16 46 35 96 19 50 35 99 35 108 0 25 6 12 48 -100z"/>
<path d="M5219 4632 c-77 -40 -111 -98 -117 -200 -10 -180 66 -275 222 -276
99 0 126 8 126 39 0 14 -1 25 -2 25 -2 0 -30 -5 -63 -10 -140 -23 -225 51
-224 195 1 96 30 152 95 185 43 22 105 26 154 8 29 -9 35 -9 47 7 19 27 17 31
-26 43 -70 22 -153 15 -212 -16z"/>
<path d="M5860 4644 c-77 -33 -118 -100 -127 -204 -15 -178 70 -284 227 -284
146 1 220 86 220 254 0 62 -6 96 -19 125 -23 49 -75 99 -120 114 -47 15 -139
13 -181 -5z m180 -52 c22 -12 44 -35 58 -63 20 -38 23 -56 20 -136 -2 -74 -7
-97 -24 -119 -38 -51 -69 -67 -131 -68 -106 -1 -161 56 -170 177 -9 105 25
184 91 213 44 19 115 17 156 -4z"/>
<path d="M1710 4405 l0 -245 30 0 30 0 0 245 0 245 -30 0 -30 0 0 -245z"/>
<path d="M1900 4405 l0 -245 31 0 32 0 -5 205 c-3 113 -4 205 -2 205 1 0 62
-92 135 -205 129 -199 133 -205 166 -205 l33 0 0 245 0 245 -25 0 -25 0 -2
-202 -3 -202 -132 202 c-131 200 -133 202 -168 202 l-35 0 0 -245z"/>
<path d="M2361 4642 c2 -5 42 -116 89 -246 l85 -237 29 3 c31 3 26 -9 171 396
l33 92 -32 0 c-31 0 -33 -2 -58 -77 -14 -43 -46 -136 -70 -207 l-45 -129 -31
94 c-18 52 -49 144 -71 204 -38 107 -40 110 -71 113 -18 2 -31 -1 -29 -6z"/>
<path d="M2840 4405 l0 -245 135 0 135 0 0 25 0 25 -105 0 -105 0 0 90 0 90
100 0 100 0 0 25 0 25 -100 0 -100 0 0 80 0 80 105 0 105 0 0 25 0 25 -135 0
-135 0 0 -245z"/>
<path d="M3540 4625 c0 -25 1 -25 80 -25 l80 0 0 -220 0 -220 30 0 30 0 0 220
0 220 75 0 c73 0 75 1 75 25 l0 25 -185 0 -185 0 0 -25z"/>
<path d="M3990 4405 l0 -245 30 0 30 0 0 245 0 245 -30 0 -30 0 0 -245z"/>
<path d="M5560 4405 l0 -245 30 0 30 0 0 245 0 245 -30 0 -30 0 0 -245z"/>
<path d="M6290 4405 l0 -245 31 0 32 0 -5 205 c-3 113 -4 205 -2 205 1 0 62
-92 135 -205 129 -199 133 -205 166 -205 l33 0 0 245 0 245 -25 0 -25 0 -2
-202 -3 -202 -132 202 c-131 200 -133 202 -168 202 l-35 0 0 -245z"/>
<path d="M13856 4495 c-15 -19 -23 -35 -18 -35 4 0 23 16 42 35 23 24 29 35
18 35 -9 0 -28 -16 -42 -35z"/>
<path d="M18406 4495 c-15 -19 -23 -35 -18 -35 4 0 23 16 42 35 23 24 29 35
18 35 -9 0 -28 -16 -42 -35z"/>
<path d="M11066 4504 c-3 -9 -6 -74 -6 -145 l0 -129 -1275 0 -1275 0 -19 39
c-37 71 -128 131 -200 131 -83 0 -174 -57 -212 -133 -17 -32 -20 -54 -17 -112
4 -85 33 -138 99 -182 53 -35 149 -44 214 -19 48 19 111 81 121 121 l6 25
1279 0 1279 0 0 -133 c0 -132 6 -157 36 -157 12 0 423 305 436 324 4 6 8 23 8
38 0 24 -27 48 -211 188 -207 157 -249 180 -263 144z"/>
<path d="M12560 4422 c-54 -27 -80 -74 -80 -144 0 -112 37 -159 130 -166 69
-5 99 9 130 61 27 43 27 149 2 196 -35 65 -114 88 -182 53z m144 -42 c23 -23
30 -40 34 -83 9 -108 -33 -167 -118 -167 -79 0 -120 51 -120 150 0 117 125
178 204 100z"/>
<path d="M13563 4430 c-111 -34 -134 -223 -36 -300 22 -17 38 -20 92 -18 35 2
66 8 68 13 2 6 -20 9 -57 7 -72 -4 -104 12 -126 63 -51 124 33 249 147 218 36
-9 62 -2 40 11 -19 12 -97 15 -128 6z"/>
<path d="M14542 4420 c-33 -15 -47 -29 -62 -62 -38 -84 -14 -200 49 -232 33
-18 151 -22 151 -6 0 6 -27 10 -61 10 -56 0 -64 3 -94 33 -38 38 -52 95 -36
155 21 77 88 115 165 94 28 -8 36 -8 36 3 0 12 -43 25 -84 25 -11 0 -40 -9
-64 -20z"/>
<path d="M17942 4420 c-33 -15 -47 -29 -62 -62 -38 -84 -14 -200 49 -232 33
-18 151 -22 151 -6 0 6 -27 10 -61 10 -56 0 -64 3 -94 33 -38 38 -52 95 -36
155 21 77 88 115 165 94 28 -8 36 -8 36 3 0 12 -43 25 -84 25 -11 0 -40 -9
-64 -20z"/>
<path d="M18340 4422 c-54 -27 -80 -74 -80 -144 0 -112 37 -159 130 -166 69
-5 99 9 130 61 27 43 27 149 2 196 -35 65 -114 88 -182 53z m144 -42 c23 -23
30 -40 34 -83 9 -108 -33 -167 -118 -167 -79 0 -120 51 -120 150 0 117 125
178 204 100z"/>
<path d="M12100 4270 l0 -160 68 0 c86 0 128 23 138 75 7 39 -15 85 -41 85
-22 0 -18 9 10 32 33 26 33 71 0 103 -21 22 -33 25 -100 25 l-75 0 0 -160z
m161 119 c15 -15 19 -28 14 -47 -9 -40 -32 -52 -97 -52 l-58 0 0 60 0 60 60 0
c47 0 64 -4 81 -21z m3 -138 c10 -8 16 -29 16 -52 0 -51 -26 -69 -102 -69
l-58 0 0 71 0 71 64 -4 c35 -2 71 -10 80 -17z"/>
<path d="M12380 4270 c0 -100 4 -160 10 -160 6 0 10 60 10 160 0 100 -4 160
-10 160 -6 0 -10 -60 -10 -160z"/>
<path d="M12840 4270 c0 -206 18 -217 22 -14 l3 147 59 -147 c32 -80 62 -146
67 -146 4 0 33 66 66 147 l58 147 3 -147 c4 -204 22 -193 22 13 0 147 -1 160
-18 160 -13 0 -31 -33 -72 -135 -29 -74 -56 -135 -59 -135 -3 0 -30 61 -59
135 -43 107 -58 135 -73 135 -18 0 -19 -9 -19 -160z"/>
<path d="M13230 4270 l0 -160 90 0 c53 0 90 4 90 10 0 6 -33 10 -80 10 l-80 0
0 70 0 70 75 0 c43 0 75 4 75 10 0 6 -32 10 -75 10 l-75 0 0 60 0 60 80 0 c47
0 80 4 80 10 0 6 -37 10 -90 10 l-90 0 0 -160z"/>
<path d="M13783 4273 c-35 -86 -61 -159 -58 -161 9 -10 24 11 41 58 l18 51 70
-3 69 -3 20 -52 c11 -29 26 -53 33 -53 11 0 9 10 -5 48 -11 26 -39 98 -63 159
-24 62 -47 113 -53 113 -5 0 -38 -71 -72 -157z m102 44 c14 -37 25 -70 25 -72
0 -3 -25 -5 -55 -5 -30 0 -55 3 -55 7 0 13 52 144 56 141 2 -2 15 -34 29 -71z"/>
<path d="M14040 4270 c0 -100 4 -160 10 -160 6 0 10 54 10 142 l0 143 95 -143
c52 -78 100 -142 105 -142 6 0 10 61 10 160 0 100 -4 160 -10 160 -6 0 -10
-54 -10 -142 l0 -143 -95 143 c-52 78 -100 142 -105 142 -6 0 -10 -61 -10
-160z"/>
<path d="M14360 4270 c0 -136 2 -160 15 -160 13 0 15 24 15 160 0 136 -2 160
-15 160 -13 0 -15 -24 -15 -160z"/>
<path d="M14831 4408 c-5 -13 -34 -85 -64 -160 -38 -95 -51 -138 -42 -138 8 0
22 24 33 53 l20 52 69 3 70 3 18 -48 c19 -52 31 -70 40 -61 9 8 -115 318 -126
318 -5 0 -13 -10 -18 -22z m48 -88 c29 -77 29 -80 -27 -80 -27 0 -51 2 -54 5
-3 3 6 37 21 75 14 38 29 66 33 62 3 -4 16 -32 27 -62z"/>
<path d="M15110 4425 c0 -2 23 -47 50 -98 44 -83 50 -100 50 -155 0 -35 4 -62
10 -62 6 0 10 27 10 60 0 54 5 70 54 157 30 54 50 100 45 102 -13 4 -8 11 -61
-87 l-45 -84 -47 86 c-26 47 -51 86 -57 86 -5 0 -9 -2 -9 -5z"/>
<path d="M15510 4271 c0 -101 4 -161 10 -161 6 0 10 30 10 70 l0 70 40 0 c38
0 40 -2 81 -70 23 -38 47 -70 55 -70 9 0 -2 26 -31 73 l-44 72 24 13 c47 24
60 91 26 133 -16 20 -30 24 -95 27 l-76 4 0 -161z m136 131 c21 -13 34 -52 28
-77 -9 -37 -41 -55 -96 -55 l-48 0 0 70 0 70 53 0 c28 0 57 -4 63 -8z"/>
<path d="M15770 4270 l0 -160 90 0 c53 0 90 4 90 10 0 6 -32 10 -75 10 l-75 0
0 70 0 70 70 0 c40 0 70 4 70 10 0 6 -30 10 -70 10 l-70 0 0 60 0 60 75 0 c43
0 75 4 75 10 0 6 -37 10 -90 10 l-90 0 0 -160z"/>
<path d="M16020 4270 c0 -136 2 -160 15 -160 12 0 15 16 15 80 l0 81 93 -3 92
-3 3 -77 c2 -43 7 -78 12 -78 6 0 10 65 10 160 0 100 -4 160 -10 160 -6 0 -10
-30 -10 -70 l0 -70 -95 0 -95 0 0 70 c0 56 -3 70 -15 70 -13 0 -15 -24 -15
-160z"/>
<path d="M16371 4274 c-34 -86 -59 -159 -56 -162 9 -9 21 10 40 61 l18 47 67
0 68 0 22 -55 c21 -51 41 -72 40 -42 -1 22 -117 301 -127 304 -5 2 -37 -67
-72 -153z m122 -26 c-2 -5 -26 -8 -54 -8 -55 0 -58 6 -33 66 9 22 21 50 26 64
9 23 12 20 37 -45 16 -38 26 -73 24 -77z"/>
<path d="M16620 4271 l0 -161 65 0 c88 0 130 18 144 63 12 34 2 87 -16 87 -5
0 -14 4 -21 9 -11 6 -8 14 13 35 22 22 26 33 21 59 -11 52 -28 62 -121 66
l-85 3 0 -161z m161 129 c13 -7 19 -21 19 -45 0 -46 -29 -65 -97 -65 l-53 0 0
60 0 60 56 0 c30 0 64 -5 75 -10z m-6 -142 c28 -13 40 -45 31 -81 -7 -31 -45
-47 -106 -47 l-50 0 0 70 0 70 50 0 c27 0 61 -5 75 -12z"/>
<path d="M16910 4270 c0 -100 4 -160 10 -160 6 0 10 60 10 160 0 100 -4 160
-10 160 -6 0 -10 -60 -10 -160z"/>
<path d="M17020 4270 l0 -160 90 0 c53 0 90 4 90 10 0 6 -33 10 -80 10 l-80 0
0 150 c0 93 -4 150 -10 150 -6 0 -10 -60 -10 -160z"/>
<path d="M17250 4270 c0 -136 2 -160 15 -160 13 0 15 24 15 160 0 136 -2 160
-15 160 -13 0 -15 -24 -15 -160z"/>
<path d="M17325 4420 c3 -5 28 -10 56 -10 l49 0 0 -150 c0 -93 4 -150 10 -150
6 0 10 57 10 150 l0 150 55 0 c30 0 55 5 55 10 0 6 -47 10 -121 10 -77 0 -118
-4 -114 -10z"/>
<path d="M17686 4422 c-4 -6 -43 -103 -107 -264 -14 -35 -15 -48 -6 -48 7 0
21 24 32 53 l21 52 70 3 70 3 19 -56 c11 -31 25 -55 33 -55 7 0 12 4 10 8 -1
5 -30 77 -62 160 -55 141 -67 164 -80 144z m42 -105 c12 -33 22 -63 22 -68 0
-5 -25 -9 -56 -9 -49 0 -55 2 -50 18 35 95 52 130 57 124 3 -4 15 -33 27 -65z"/>
<path d="M18160 4270 c0 -100 4 -160 10 -160 6 0 10 60 10 160 0 100 -4 160
-10 160 -6 0 -10 -60 -10 -160z"/>
<path d="M18620 4270 c0 -100 4 -160 10 -160 6 0 10 54 10 142 l0 143 95 -143
c52 -78 100 -142 105 -142 6 0 10 61 10 160 0 200 -18 219 -22 23 l-3 -136
-90 136 c-49 75 -96 137 -102 137 -10 0 -13 -39 -13 -160z"/>
<path d="M11070 3561 c-5 -11 -10 -76 -10 -145 l0 -126 -1279 0 -1279 0 -6 23
c-9 38 -63 93 -113 117 -67 31 -163 26 -222 -13 -64 -42 -95 -97 -99 -176 -8
-143 85 -244 223 -244 92 0 167 47 209 131 l17 32 1274 0 1275 0 0 -129 c0
-145 3 -161 33 -161 11 0 116 72 234 160 204 153 213 162 213 194 0 33 -9 41
-215 195 -119 89 -222 161 -230 161 -8 0 -19 -9 -25 -19z"/>
<path d="M16126 3348 c-36 -46 -22 -49 22 -5 26 26 32 37 20 37 -9 0 -28 -14
-42 -32z"/>
<path d="M13766 3338 c-9 -12 -13 -24 -10 -27 3 -3 10 2 15 12 13 22 29 22 69
0 31 -18 31 -18 51 6 11 13 17 26 14 29 -3 3 -12 -3 -20 -14 -13 -18 -15 -18
-45 -1 -41 22 -56 22 -74 -5z"/>
<path d="M13260 3283 c-33 -12 -60 -47 -60 -78 0 -39 30 -69 90 -90 80 -28
103 -72 59 -116 -18 -18 -30 -21 -90 -17 -66 3 -87 -3 -53 -16 9 -3 42 -6 73
-6 77 0 111 25 111 79 0 46 -27 74 -94 97 -49 17 -80 50 -74 80 2 9 15 26 31
37 24 19 33 20 77 11 53 -11 68 0 24 16 -27 11 -70 12 -94 3z"/>
<path d="M14824 3276 c-34 -15 -44 -33 -44 -76 0 -37 19 -55 96 -90 76 -34 92
-65 53 -106 -22 -24 -30 -26 -92 -22 -43 2 -66 0 -64 -7 2 -5 36 -11 75 -13
65 -3 74 -1 97 22 29 29 34 86 9 107 -9 8 -43 28 -77 44 -68 34 -83 51 -74 87
10 37 56 54 113 41 32 -8 44 -7 41 1 -8 25 -87 32 -133 12z"/>
<path d="M16371 3268 c-56 -30 -81 -75 -81 -146 0 -111 49 -162 155 -162 104
0 105 1 105 86 l0 74 -60 0 c-33 0 -60 -4 -60 -10 0 -5 23 -10 50 -10 l51 0
-3 -57 -3 -58 -60 -3 c-77 -4 -118 16 -139 69 -52 128 47 249 172 211 38 -12
52 -8 35 9 -5 5 -34 13 -64 15 -44 5 -62 1 -98 -18z"/>
<path d="M17483 3271 c-69 -43 -53 -109 35 -148 74 -33 92 -50 92 -84 0 -43
-36 -62 -110 -57 -37 2 -59 -1 -57 -7 2 -5 33 -11 69 -13 58 -2 69 0 94 21 21
18 28 33 28 60 0 46 -13 60 -82 88 -71 27 -84 40 -84 75 0 52 62 79 126 54 15
-5 28 -5 31 0 8 13 -9 20 -62 26 -37 4 -55 1 -80 -15z"/>
<path d="M13460 3120 l0 -160 90 0 c53 0 90 4 90 10 0 6 -33 10 -80 10 l-80 0
0 70 0 70 75 0 c43 0 75 4 75 10 0 6 -32 10 -75 10 l-75 0 0 60 0 60 80 0 c47
0 80 4 80 10 0 6 -37 10 -90 10 l-90 0 0 -160z"/>
<path d="M13710 3120 c0 -203 18 -218 22 -18 l3 141 94 -141 c52 -78 100 -142
107 -142 11 0 14 32 14 160 0 140 -2 160 -16 160 -14 0 -15 -17 -12 -140 1
-77 3 -140 2 -140 -1 0 -43 63 -94 140 -51 77 -99 140 -106 140 -11 0 -14 -32
-14 -160z"/>
<path d="M14111 3258 c-5 -13 -34 -85 -64 -160 -38 -95 -51 -138 -42 -138 8 0
22 24 33 53 l20 52 69 3 70 3 18 -48 c19 -52 31 -70 40 -61 9 8 -115 318 -126
318 -5 0 -13 -10 -18 -22z m48 -88 c29 -77 29 -80 -27 -80 -27 0 -51 2 -54 5
-3 3 6 37 21 75 14 38 29 66 33 62 3 -4 16 -32 27 -62z"/>
<path d="M14310 3120 l0 -160 90 0 c53 0 90 4 90 10 0 6 -33 10 -80 10 l-80 0
0 150 c0 93 -4 150 -10 150 -6 0 -10 -60 -10 -160z"/>
<path d="M14540 3120 l0 -160 90 0 c53 0 90 4 90 10 0 6 -32 10 -75 10 l-75 0
0 70 0 70 70 0 c40 0 70 4 70 10 0 6 -30 10 -70 10 l-70 0 0 60 0 60 75 0 c43
0 75 4 75 10 0 6 -37 10 -90 10 l-90 0 0 -160z"/>
<path d="M15160 3120 l0 -160 85 0 c50 0 85 4 85 10 0 6 -32 10 -75 10 l-75 0
0 70 0 70 75 0 c43 0 75 4 75 10 0 6 -32 10 -75 10 l-75 0 0 60 0 60 75 0 c43
0 75 4 75 10 0 6 -35 10 -85 10 l-85 0 0 -160z"/>
<path d="M15530 3120 c0 -100 4 -160 10 -160 6 0 10 60 10 160 0 100 -4 160
-10 160 -6 0 -10 -60 -10 -160z"/>
<path d="M15640 3120 c0 -206 18 -217 22 -14 l3 147 59 -147 c32 -80 62 -146
67 -146 4 0 33 66 66 147 l58 147 3 -147 c4 -204 22 -193 22 13 0 147 -1 160
-18 160 -13 0 -31 -33 -72 -135 -29 -74 -56 -135 -59 -135 -3 0 -30 61 -59
135 -43 107 -58 135 -73 135 -18 0 -19 -9 -19 -160z"/>
<path d="M16051 3124 c-34 -86 -59 -159 -56 -162 9 -9 21 10 40 61 l18 47 67
0 68 0 22 -55 c21 -51 41 -72 40 -42 -1 22 -117 301 -127 304 -5 2 -37 -67
-72 -153z m122 -26 c-2 -5 -26 -8 -54 -8 -55 0 -58 6 -33 66 9 22 21 50 26 64
9 23 12 20 37 -45 16 -38 26 -73 24 -77z"/>
<path d="M16630 3120 l0 -160 90 0 c53 0 90 4 90 10 0 6 -33 10 -80 10 l-80 0
0 70 0 70 75 0 c43 0 75 4 75 10 0 6 -32 10 -75 10 l-75 0 0 60 0 60 80 0 c47
0 80 4 80 10 0 6 -37 10 -90 10 l-90 0 0 -160z"/>
<path d="M16880 3120 c0 -203 18 -218 22 -18 l3 141 94 -141 c52 -78 100 -142
107 -142 11 0 14 32 14 160 0 140 -2 160 -16 160 -14 0 -15 -17 -12 -140 1
-77 3 -140 2 -140 -1 0 -43 63 -94 140 -51 77 -99 140 -106 140 -11 0 -14 -32
-14 -160z"/>
<path d="M17210 3120 l0 -160 85 0 c50 0 85 4 85 10 0 6 -32 10 -75 10 l-75 0
0 70 0 70 75 0 c43 0 75 4 75 10 0 6 -32 10 -75 10 l-75 0 0 60 0 60 75 0 c43
0 75 4 75 10 0 6 -35 10 -85 10 l-85 0 0 -160z"/>
<path d="M11075 2494 c-12 -12 -15 -42 -15 -145 l0 -129 -1279 0 -1279 0 -12
29 c-16 41 -68 91 -115 112 -93 43 -216 8 -278 -79 -27 -37 -32 -54 -35 -117
-5 -83 10 -125 62 -176 64 -64 150 -84 234 -55 61 22 97 52 127 107 l26 49
1275 0 1274 0 0 -134 c0 -109 3 -138 16 -150 21 -22 30 -16 264 161 171 130
195 152 198 178 1 17 -1 35 -5 41 -12 16 -405 309 -425 317 -10 3 -24 0 -33
-9z"/>
<path d="M17006 2405 c-15 -19 -23 -35 -18 -35 4 0 23 16 42 35 23 24 29 35
18 35 -9 0 -28 -16 -42 -35z"/>
<path d="M12664 2336 c-34 -15 -44 -33 -44 -76 0 -37 19 -55 96 -90 76 -34 92
-65 53 -106 -22 -24 -30 -26 -92 -22 -43 2 -66 0 -64 -7 2 -5 36 -11 75 -13
65 -3 74 -1 97 22 29 29 34 86 9 107 -9 8 -43 28 -77 44 -68 34 -83 51 -74 87
10 37 56 54 113 41 32 -8 44 -7 41 1 -8 25 -87 32 -133 12z"/>
<path d="M13940 2333 c-51 -27 -75 -75 -75 -153 0 -106 48 -160 140 -160 63 0
99 21 124 73 38 78 17 193 -43 232 -39 26 -105 29 -146 8z m115 -17 c44 -19
68 -66 68 -133 0 -98 -38 -143 -122 -143 -31 0 -49 7 -73 29 -29 26 -33 35
-36 98 -5 84 13 128 61 148 41 18 60 18 102 1z"/>
<path d="M14270 2343 c-33 -12 -60 -47 -60 -78 0 -39 30 -69 90 -90 80 -28
103 -72 59 -116 -18 -18 -30 -21 -90 -17 -66 3 -87 -3 -53 -16 9 -3 42 -6 73
-6 77 0 111 25 111 79 0 46 -27 74 -94 97 -49 17 -80 50 -74 80 2 9 15 26 31
37 24 19 33 20 77 11 53 -11 68 0 24 16 -27 11 -70 12 -94 3z"/>
<path d="M16360 2332 c-54 -27 -80 -74 -80 -144 0 -112 37 -159 130 -166 69
-5 99 9 130 61 27 43 27 149 2 196 -35 65 -114 88 -182 53z m144 -42 c23 -23
30 -40 34 -83 9 -108 -33 -167 -118 -167 -79 0 -120 51 -120 150 0 117 125
178 204 100z"/>
<path d="M16940 2332 c-54 -27 -80 -74 -80 -144 0 -112 37 -159 130 -166 69
-5 99 9 130 61 27 43 27 149 2 196 -35 65 -114 88 -182 53z m144 -42 c23 -23
30 -40 34 -83 9 -108 -33 -167 -118 -167 -79 0 -120 51 -120 150 0 117 125
178 204 100z"/>
<path d="M17290 2328 c-59 -30 -83 -74 -83 -147 0 -109 52 -161 161 -161 94 0
102 7 102 90 l0 70 -60 0 c-33 0 -60 -4 -60 -10 0 -5 20 -10 45 -10 l45 0 0
-60 0 -60 -62 0 c-110 0 -156 52 -146 162 10 94 75 141 172 121 28 -6 53 -9
55 -7 12 11 -22 26 -70 30 -44 4 -63 1 -99 -18z"/>
<path d="M17743 2340 c-111 -34 -134 -223 -36 -300 22 -17 38 -20 92 -18 35 2
66 8 68 13 2 6 -20 9 -57 7 -72 -4 -104 12 -126 63 -51 124 33 249 147 218 36
-9 62 -2 40 11 -19 12 -97 15 -128 6z"/>
<path d="M18010 2332 c-54 -27 -80 -74 -80 -144 0 -112 37 -159 130 -166 69
-5 99 9 130 61 27 43 27 149 2 196 -35 65 -114 88 -182 53z m144 -42 c23 -23
30 -40 34 -83 9 -108 -33 -167 -118 -167 -79 0 -120 51 -120 150 0 117 125
178 204 100z"/>
<path d="M18313 2331 c-69 -43 -53 -109 35 -148 74 -33 92 -50 92 -84 0 -43
-36 -62 -110 -57 -37 2 -59 -1 -57 -7 2 -5 33 -11 69 -13 58 -2 69 0 94 21 21
18 28 33 28 60 0 46 -13 60 -82 88 -71 27 -84 40 -84 75 0 52 62 79 126 54 15
-5 28 -5 31 0 8 13 -9 20 -62 26 -37 4 -55 1 -80 -15z"/>
<path d="M12380 2180 l0 -160 90 0 c53 0 90 4 90 10 0 6 -32 10 -75 10 l-75 0
0 70 0 70 70 0 c40 0 70 4 70 10 0 6 -30 10 -70 10 l-70 0 0 60 0 60 75 0 c43
0 75 4 75 10 0 6 -37 10 -90 10 l-90 0 0 -160z"/>
<path d="M12840 2330 c0 -5 23 -10 50 -10 l50 0 0 -150 c0 -93 4 -150 10 -150
6 0 10 57 10 150 l0 150 55 0 c30 0 55 5 55 10 0 6 -45 10 -115 10 -70 0 -115
-4 -115 -10z"/>
<path d="M13110 2243 c1 -177 26 -223 124 -223 100 0 126 44 126 218 0 84 -3
102 -15 102 -13 0 -15 -21 -15 -125 0 -120 -1 -127 -25 -150 -18 -19 -35 -25
-70 -25 -35 0 -52 6 -70 25 -24 23 -25 30 -25 150 0 104 -2 125 -15 125 -12 0
-15 -17 -15 -97z"/>
<path d="M13440 2180 l0 -160 63 0 c88 1 142 27 167 82 25 56 25 111 0 164
-27 55 -67 74 -159 74 l-71 0 0 -160z m191 102 c25 -28 29 -40 29 -93 0 -33
-7 -73 -15 -88 -18 -36 -71 -61 -129 -61 l-46 0 0 141 0 141 66 -4 c60 -4 70
-7 95 -36z"/>
<path d="M13760 2180 c0 -136 2 -160 15 -160 13 0 15 24 15 160 0 136 -2 160
-15 160 -13 0 -15 -24 -15 -160z"/>
<path d="M14590 2180 l0 -160 85 0 c50 0 85 4 85 10 0 6 -32 10 -75 10 l-75 0
0 70 0 70 75 0 c43 0 75 4 75 10 0 6 -32 10 -75 10 l-75 0 0 60 0 60 75 0 c43
0 75 4 75 10 0 6 -35 10 -85 10 l-85 0 0 -160z"/>
<path d="M14840 2180 c0 -100 4 -160 10 -160 6 0 10 28 10 64 l0 63 59 7 c77
9 111 38 111 96 0 30 -6 47 -25 65 -21 22 -33 25 -95 25 l-70 0 0 -160z m150
120 c22 -22 26 -60 10 -90 -12 -22 -60 -40 -106 -40 l-34 0 0 75 0 75 55 0
c42 0 60 -5 75 -20z"/>
<path d="M15110 2180 c0 -100 4 -160 10 -160 6 0 10 60 10 160 0 100 -4 160
-10 160 -6 0 -10 -60 -10 -160z"/>
<path d="M15220 2180 l0 -160 60 0 c70 0 115 16 150 54 20 22 25 40 28 95 7
122 -40 171 -165 171 l-73 0 0 -160z m159 125 c56 -29 78 -126 43 -195 -21
-44 -72 -70 -134 -70 l-48 0 0 140 0 140 55 0 c31 0 69 -7 84 -15z"/>
<path d="M15540 2180 l0 -160 85 0 c50 0 85 4 85 10 0 6 -32 10 -75 10 l-75 0
0 70 0 70 75 0 c43 0 75 4 75 10 0 6 -32 10 -75 10 l-75 0 0 60 0 60 75 0 c43
0 75 4 75 10 0 6 -35 10 -85 10 l-85 0 0 -160z"/>
<path d="M15790 2180 c0 -100 4 -160 10 -160 6 0 10 56 10 148 l1 147 58 -145
c32 -79 63 -146 67 -147 5 -2 36 63 69 144 l60 148 3 -147 c4 -205 22 -194 22
12 0 151 -1 160 -19 160 -15 0 -30 -28 -73 -135 -29 -74 -56 -135 -59 -135 -3
0 -30 61 -60 135 -40 101 -58 135 -71 135 -16 0 -18 -14 -18 -160z"/>
<path d="M16180 2180 c0 -100 4 -160 10 -160 6 0 10 60 10 160 0 100 -4 160
-10 160 -6 0 -10 -60 -10 -160z"/>
<path d="M16640 2180 l0 -160 90 0 c53 0 90 4 90 10 0 6 -33 10 -80 10 l-80 0
0 150 c0 93 -4 150 -10 150 -6 0 -10 -60 -10 -160z"/>
<path d="M17550 2180 c0 -100 4 -160 10 -160 6 0 10 60 10 160 0 100 -4 160
-10 160 -6 0 -10 -60 -10 -160z"/>
<path d="M11075 1424 c-12 -12 -15 -43 -15 -150 l0 -134 -1275 0 -1275 0 -19
38 c-75 146 -263 177 -372 60 -44 -46 -59 -88 -59 -158 0 -161 145 -265 304
-218 47 14 122 84 132 122 l6 26 1279 0 1279 0 0 -129 c0 -104 3 -133 16 -145
8 -9 19 -16 23 -16 4 0 103 73 221 163 189 142 215 166 218 192 2 22 -4 37
-20 51 -42 38 -393 300 -410 307 -10 3 -24 -1 -33 -9z"/>
<path d="M17077 1335 c-15 -19 -25 -35 -21 -35 12 0 74 51 74 61 0 20 -26 7
-53 -26z"/>
<path d="M14125 1261 c-58 -30 -80 -71 -80 -151 0 -112 47 -160 153 -160 34 0
64 5 67 10 4 6 -18 10 -59 10 -58 0 -69 3 -98 29 -32 29 -33 32 -33 109 0 71
3 83 24 106 34 36 91 52 136 39 19 -6 37 -7 40 -3 8 13 -10 20 -62 26 -36 4
-58 0 -88 -15z"/>
<path d="M14520 1262 c-54 -27 -80 -74 -80 -144 0 -112 37 -159 130 -166 69
-5 99 9 130 61 27 43 27 149 2 196 -35 65 -114 88 -182 53z m144 -42 c23 -23
30 -40 34 -83 9 -108 -33 -167 -118 -167 -79 0 -120 51 -120 150 0 117 125
178 204 100z"/>
<path d="M15420 1273 c-33 -12 -60 -47 -60 -78 0 -39 30 -69 90 -90 80 -28
103 -72 59 -116 -18 -18 -30 -21 -90 -17 -66 3 -87 -3 -53 -16 9 -3 42 -6 73
-6 77 0 111 25 111 79 0 46 -27 74 -94 97 -49 17 -80 50 -74 80 2 9 15 26 31
37 24 19 33 20 77 11 53 -11 68 0 24 16 -27 11 -70 12 -94 3z"/>
<path d="M16073 1270 c-111 -34 -134 -223 -36 -300 22 -17 38 -20 92 -18 35 2
66 8 68 13 2 6 -20 9 -57 7 -72 -4 -104 12 -126 63 -51 124 33 249 147 218 36
-9 62 -2 40 11 -19 12 -97 15 -128 6z"/>
<path d="M16340 1262 c-54 -27 -80 -74 -80 -144 0 -112 37 -159 130 -166 69
-5 99 9 130 61 27 43 27 149 2 196 -35 65 -114 88 -182 53z m144 -42 c23 -23
30 -40 34 -83 9 -108 -33 -167 -118 -167 -79 0 -120 51 -120 150 0 117 125
178 204 100z"/>
<path d="M17011 1262 c-50 -25 -74 -63 -79 -127 -10 -117 44 -185 145 -185 70
0 116 38 133 110 36 150 -77 265 -199 202z m114 -16 c50 -21 68 -64 63 -149
-3 -63 -7 -72 -36 -98 -24 -22 -42 -29 -73 -29 -83 0 -125 48 -123 145 0 65
21 106 64 127 42 22 60 22 105 4z"/>
<path d="M17865 1261 c-58 -30 -80 -71 -80 -151 0 -112 47 -160 153 -160 34 0
64 5 67 10 4 6 -18 10 -59 10 -58 0 -69 3 -98 29 -32 29 -33 32 -33 109 0 71
3 83 24 106 34 36 91 52 136 39 19 -6 37 -7 40 -3 8 13 -10 20 -62 26 -36 4
-58 0 -88 -15z"/>
<path d="M18381 1263 c-40 -21 -56 -58 -42 -97 8 -20 30 -35 86 -61 74 -33 81
-42 75 -85 -1 -8 -9 -23 -18 -33 -14 -16 -28 -18 -85 -15 -43 2 -66 0 -64 -7
5 -14 115 -18 148 -5 35 15 56 62 43 98 -6 20 -27 36 -74 58 -36 17 -71 37
-77 43 -17 16 -16 66 0 80 22 18 74 24 106 13 17 -6 33 -7 36 -2 16 26 -89 37
-134 13z"/>
<path d="M12440 1110 l0 -160 90 0 c53 0 90 4 90 10 0 6 -32 10 -75 10 l-75 0
0 70 0 70 70 0 c40 0 70 4 70 10 0 6 -30 10 -70 10 l-70 0 0 60 0 60 75 0 c43
0 75 4 75 10 0 6 -37 10 -90 10 l-90 0 0 -160z"/>
<path d="M12650 1268 c0 -17 119 -313 127 -315 6 -2 37 68 70 157 38 100 56
160 49 160 -7 0 -32 -53 -56 -117 -23 -65 -47 -129 -52 -143 -9 -22 -16 -10
-61 114 -29 77 -58 141 -64 144 -7 2 -13 2 -13 0z"/>
<path d="M13036 1262 c-4 -6 -43 -103 -107 -264 -14 -35 -15 -48 -6 -48 7 0
21 24 32 53 l21 52 70 3 70 3 19 -56 c11 -31 25 -55 33 -55 7 0 12 4 10 8 -1
5 -30 77 -62 160 -55 141 -67 164 -80 144z m42 -105 c12 -33 22 -63 22 -68 0
-5 -25 -9 -56 -9 -49 0 -55 2 -50 18 35 95 52 130 57 124 3 -4 15 -33 27 -65z"/>
<path d="M13230 1110 l0 -160 85 0 c50 0 85 4 85 10 0 6 -32 10 -75 10 l-75 0
0 150 c0 93 -4 150 -10 150 -6 0 -10 -60 -10 -160z"/>
<path d="M13450 1173 c1 -177 26 -223 124 -223 100 0 126 44 126 218 0 84 -3
102 -15 102 -13 0 -15 -21 -15 -125 0 -120 -1 -127 -25 -150 -34 -35 -106 -35
-140 0 -24 23 -25 30 -25 150 0 104 -2 125 -15 125 -12 0 -15 -17 -15 -97z"/>
<path d="M13866 1262 c-4 -6 -43 -103 -107 -264 -14 -35 -15 -48 -6 -48 7 0
21 24 32 53 l21 52 70 3 70 3 19 -56 c11 -31 25 -55 33 -55 7 0 12 4 10 8 -1
5 -30 77 -62 160 -55 141 -67 164 -80 144z m42 -105 c12 -33 22 -63 22 -68 0
-5 -25 -9 -56 -9 -49 0 -55 2 -50 18 35 95 52 130 57 124 3 -4 15 -33 27 -65z"/>
<path d="M14340 1110 c0 -100 4 -160 10 -160 6 0 10 60 10 160 0 100 -4 160
-10 160 -6 0 -10 -60 -10 -160z"/>
<path d="M14800 1110 c0 -203 18 -218 22 -18 l3 141 94 -141 c52 -78 100 -142
107 -142 11 0 14 32 14 160 0 140 -2 160 -16 160 -14 0 -15 -17 -12 -140 1
-77 3 -140 2 -140 -1 0 -43 63 -94 140 -51 77 -99 140 -106 140 -11 0 -14 -32
-14 -160z"/>
<path d="M15130 1110 l0 -160 85 0 c50 0 85 4 85 10 0 6 -32 10 -75 10 l-75 0
0 70 0 70 70 0 c40 0 70 4 70 10 0 6 -30 10 -70 10 l-70 0 0 60 0 60 75 0 c43
0 75 4 75 10 0 6 -35 10 -85 10 l-85 0 0 -160z"/>
<path d="M15740 1110 l0 -160 90 0 c53 0 90 4 90 10 0 6 -33 10 -80 10 l-80 0
0 70 0 70 75 0 c43 0 75 4 75 10 0 6 -32 10 -75 10 l-75 0 0 60 0 60 80 0 c47
0 80 4 80 10 0 6 -37 10 -90 10 l-90 0 0 -160z"/>
<path d="M16620 1110 c0 -100 4 -160 10 -160 6 0 10 54 10 142 l0 143 95 -143
c52 -78 100 -142 105 -142 6 0 10 61 10 160 0 200 -18 219 -22 23 l-3 -136
-90 136 c-49 75 -96 137 -102 137 -10 0 -13 -39 -13 -160z"/>
<path d="M17290 1111 c0 -101 4 -161 10 -161 6 0 10 56 11 148 l0 147 28 -60
c15 -33 43 -99 62 -147 19 -49 38 -87 42 -85 5 1 34 65 65 142 l57 140 3 -143
c4 -200 22 -185 22 19 0 144 -2 160 -17 157 -13 -2 -89 -167 -126 -272 -2 -6
-28 53 -59 130 -45 112 -60 140 -77 142 -21 3 -21 0 -21 -157z"/>
<path d="M17680 1110 c0 -136 2 -160 15 -160 13 0 15 24 15 160 0 136 -2 160
-15 160 -13 0 -15 -24 -15 -160z"/>
<path d="M18151 1248 c-5 -13 -34 -85 -64 -160 -38 -95 -51 -138 -42 -138 8 0
22 24 33 53 l20 52 69 3 70 3 18 -48 c19 -52 31 -70 40 -61 9 8 -115 318 -126
318 -5 0 -13 -10 -18 -22z m48 -88 c29 -77 29 -80 -27 -80 -27 0 -51 2 -54 5
-3 3 6 37 21 75 14 38 29 66 33 62 3 -4 16 -32 27 -62z"/>
</g>
</svg>
